<svg xmlns="http://www.w3.org/2000/svg" xmlns:xlink="http://www.w3.org/1999/xlink" fill="none" version="1.1" width="200" height="780" viewBox="0 0 200 780"><defs><mask id="master_svg0_77_11238/61_25823" style="mask-type:alpha" maskUnits="userSpaceOnUse"><g><path d="M0,25.6L0,754.4C0,763.361,0.0181401,767.943,1.78589,771.353C3.30747,774.288,5.71166,776.693,8.64708,778.214C12.0574,779.982,16.6391,780,25.6,780L174.4,780C183.361,780,187.943,779.982,191.353,778.214C194.288,776.693,196.693,774.288,198.214,771.353C199.982,767.943,200,763.361,200,754.4L200,25.6C200,16.6391,199.982,12.0574,198.214,8.64708C196.693,5.71166,194.288,3.30747,191.353,1.78589C187.943,0.0181401,183.361,0,174.4,0L25.6,0C16.6391,0,12.0574,0.0181397,8.64708,1.78589C5.71166,3.30747,3.30747,5.71166,1.78589,8.64708C0.0181397,12.0574,0,16.6391,0,25.6Z" fill="#FFFFFF" fill-opacity="1"/></g></mask><filter id="master_svg1_77_11238/61_25822" filterUnits="objectBoundingBox" color-interpolation-filters="sRGB" x="-530" y="-530" width="1497" height="1419"><feFlood flood-opacity="0" result="BackgroundImageFix"/><feBlend mode="normal" in="SourceGraphic" in2="BackgroundImageFix" result="shape"/><feGaussianBlur stdDeviation="132.5" result="effect1_foregroundBlur"/></filter><linearGradient x1="0" y1="0.5853129625320435" x2="1" y2="0.5853129625320435" id="master_svg2_2_1916"><stop offset="0%" stop-color="#57F773" stop-opacity="1"/><stop offset="100%" stop-color="#B7F74B" stop-opacity="1"/></linearGradient><filter id="master_svg3_77_11238/61_25813" filterUnits="objectBoundingBox" color-interpolation-filters="sRGB" x="-326" y="-326" width="1191" height="1041"><feFlood flood-opacity="0" result="BackgroundImageFix"/><feBlend mode="normal" in="SourceGraphic" in2="BackgroundImageFix" result="shape"/><feGaussianBlur stdDeviation="81.5" result="effect1_foregroundBlur"/></filter><linearGradient x1="0" y1="0.5853129625320435" x2="1" y2="0.5853129625320435" id="master_svg4_19_3757"><stop offset="0%" stop-color="#57F773" stop-opacity="1"/><stop offset="0%" stop-color="#57F773" stop-opacity="1"/><stop offset="100%" stop-color="#B7F74B" stop-opacity="1"/></linearGradient></defs><g mask="url(#master_svg0_77_11238/61_25823)"><g style="opacity:0.20000000298023224;" filter="url(#master_svg1_77_11238/61_25822)"><path d="M294,794.679C294,902.552,215.949,990,119.66699999999997,990C23.385999999999996,990,-143,934.193,-143,826.321C-143,718.4481,23.385999999999996,631,119.66699999999997,631C215.949,631,294,686.8066,294,794.679Z" fill="url(#master_svg2_2_1916)" fill-opacity="1"/></g><g style="opacity:0.10000000149011612;" filter="url(#master_svg3_77_11238/61_25813)"><ellipse cx="24.5" cy="41.5" rx="269.5" ry="194.5" fill="url(#master_svg4_19_3757)" fill-opacity="1"/></g></g></svg>